<?xml version="1.0" encoding="us-ascii" standalone="no"?><svg xmlns="http://www.w3.org/2000/svg" xmlns:xlink="http://www.w3.org/1999/xlink" contentStyleType="text/css" height="740px" preserveAspectRatio="none" style="width:980px;height:740px;background:#FFFFFF;" version="1.1" viewBox="0 0 980 740" width="980px" zoomAndPan="magnify"><defs/><g><text fill="#000000" font-family="sans-serif" font-size="14" font-weight="bold" lengthAdjust="spacing" textLength="214" x="376" y="24.5332">BrokerX - Deployment Diagram</text><!--cluster VM--><g id="cluster_VM"><polygon fill="none" points="16,63.1094,26,53.1094,487,53.1094,487,713.6094,477,723.6094,16,723.6094,16,63.1094" style="stroke:#181818;stroke-width:1.0;"/><line style="stroke:#181818;stroke-width:1.0;" x1="477" x2="487" y1="63.1094" y2="53.1094"/><line style="stroke:#181818;stroke-width:1.0;" x1="16" x2="477" y1="63.1094" y2="63.1094"/><line style="stroke:#181818;stroke-width:1.0;" x1="477" x2="477" y1="63.1094" y2="723.6094"/><text fill="#000000" font-family="sans-serif" font-size="14" font-weight="bold" lengthAdjust="spacing" textLength="104" x="195.5" y="80.6426">ETS VM (Linux)</text></g><!--cluster Runner--><g id="cluster_Runner"><polygon fill="none" points="54,120.1094,64,110.1094,375,110.1094,375,214.1094,365,224.1094,54,224.1094,54,120.1094" style="stroke:#181818;stroke-width:1.0;"/><line style="stroke:#181818;stroke-width:1.0;" x1="365" x2="375" y1="120.1094" y2="110.1094"/><line style="stroke:#181818;stroke-width:1.0;" x1="54" x2="365" y1="120.1094" y2="120.1094"/><line style="stroke:#181818;stroke-width:1.0;" x1="365" x2="365" y1="120.1094" y2="224.1094"/><text fill="#000000" font-family="sans-serif" font-size="14" font-weight="bold" lengthAdjust="spacing" textLength="245" x="88" y="137.6426">Self-hosted GitHub Actions Runner</text></g><!--cluster Docker--><g id="cluster_Docker"><polygon fill="none" points="48,332.6094,58,322.6094,455,322.6094,455,681.6094,445,691.6094,48,691.6094,48,332.6094" style="stroke:#181818;stroke-width:1.0;"/><line style="stroke:#181818;stroke-width:1.0;" x1="445" x2="455" y1="332.6094" y2="322.6094"/><line style="stroke:#181818;stroke-width:1.0;" x1="48" x2="445" y1="332.6094" y2="332.6094"/><line style="stroke:#181818;stroke-width:1.0;" x1="445" x2="445" y1="332.6094" y2="691.6094"/><text fill="#000000" font-family="sans-serif" font-size="14" font-weight="bold" lengthAdjust="spacing" textLength="103" x="196" y="350.1426">Docker Engine</text></g><!--cluster API--><g id="cluster_API"><polygon fill="none" points="88,389.6094,98,379.6094,423,379.6094,423,484.6094,413,494.6094,88,494.6094,88,389.6094" style="stroke:#181818;stroke-width:1.0;"/><line style="stroke:#181818;stroke-width:1.0;" x1="413" x2="423" y1="389.6094" y2="379.6094"/><line style="stroke:#181818;stroke-width:1.0;" x1="88" x2="413" y1="389.6094" y2="389.6094"/><line style="stroke:#181818;stroke-width:1.0;" x1="413" x2="413" y1="389.6094" y2="494.6094"/><text fill="#000000" font-family="sans-serif" font-size="14" font-weight="bold" lengthAdjust="spacing" textLength="259" x="122" y="407.1426">BrokerX API Container (brokerx_app)</text></g><!--cluster DB--><g id="cluster_DB"><polygon fill="none" points="114,554.6094,124,544.6094,406,544.6094,406,649.6094,396,659.6094,114,659.6094,114,554.6094" style="stroke:#181818;stroke-width:1.0;"/><line style="stroke:#181818;stroke-width:1.0;" x1="396" x2="406" y1="554.6094" y2="544.6094"/><line style="stroke:#181818;stroke-width:1.0;" x1="114" x2="396" y1="554.6094" y2="554.6094"/><line style="stroke:#181818;stroke-width:1.0;" x1="396" x2="396" y1="554.6094" y2="659.6094"/><text fill="#000000" font-family="sans-serif" font-size="14" font-weight="bold" lengthAdjust="spacing" textLength="216" x="148" y="572.1426">MySQL Container (brokerx_db)</text></g><!--cluster ClientMachine--><g id="cluster_ClientMachine"><polygon fill="none" points="511,54.6094,521,44.6094,963,44.6094,963,254.6094,953,264.6094,511,264.6094,511,54.6094" style="stroke:#181818;stroke-width:1.0;"/><line style="stroke:#181818;stroke-width:1.0;" x1="953" x2="963" y1="54.6094" y2="44.6094"/><line style="stroke:#181818;stroke-width:1.0;" x1="511" x2="953" y1="54.6094" y2="54.6094"/><line style="stroke:#181818;stroke-width:1.0;" x1="953" x2="953" y1="54.6094" y2="264.6094"/><text fill="#000000" font-family="sans-serif" font-size="14" font-weight="bold" lengthAdjust="spacing" textLength="105" x="680.5" y="72.1426">Client Machine</text></g><!--cluster browser--><g id="cluster_browser"><polygon fill="none" points="543,111.6094,553,101.6094,931,101.6094,931,222.6094,921,232.6094,543,232.6094,543,111.6094" style="stroke:#181818;stroke-width:1.0;"/><line style="stroke:#181818;stroke-width:1.0;" x1="921" x2="931" y1="111.6094" y2="101.6094"/><line style="stroke:#181818;stroke-width:1.0;" x1="543" x2="921" y1="111.6094" y2="111.6094"/><line style="stroke:#181818;stroke-width:1.0;" x1="921" x2="921" y1="111.6094" y2="232.6094"/><text fill="#000000" font-family="sans-serif" font-size="14" font-weight="bold" lengthAdjust="spacing" textLength="312" x="577" y="129.1426">Web browser (Edge, Firefox, Chrome, Safari)</text></g><!--entity CICD--><g id="elem_CICD"><rect fill="#F1F1F1" height="40.6094" rx="2.5" ry="2.5" style="stroke:#181818;stroke-width:0.5;" width="100" x="176" y="159.1094"/><polygon fill="#F1F1F1" points="259,164.1094,259,178.1094,271,178.1094,271,170.1094,265,164.1094,259,164.1094" style="stroke:#181818;stroke-width:0.5;"/><line style="stroke:#181818;stroke-width:0.5;" x1="265" x2="265" y1="164.1094" y2="170.1094"/><line style="stroke:#181818;stroke-width:0.5;" x1="271" x2="265" y1="170.1094" y2="170.1094"/><text fill="#000000" font-family="sans-serif" font-size="14" lengthAdjust="spacing" textLength="70" x="186" y="186.6426">CI/CD Jobs</text></g><!--entity GoApp--><g id="elem_GoApp"><rect fill="#F1F1F1" height="58.2188" rx="2.5" ry="2.5" style="stroke:#181818;stroke-width:0.5;" width="120" x="287" y="420.6094"/><polygon fill="#F1F1F1" points="390,425.6094,390,439.6094,402,439.6094,402,431.6094,396,425.6094,390,425.6094" style="stroke:#181818;stroke-width:0.5;"/><line style="stroke:#181818;stroke-width:0.5;" x1="396" x2="396" y1="425.6094" y2="431.6094"/><line style="stroke:#181818;stroke-width:0.5;" x1="402" x2="396" y1="431.6094" y2="431.6094"/><text fill="#000000" font-family="sans-serif" font-size="14" lengthAdjust="spacing" textLength="90" x="297" y="448.1426">Go API Server</text><text fill="#000000" font-family="sans-serif" font-size="14" lengthAdjust="spacing" textLength="83" x="297" y="465.752">(brokerx.exe)</text></g><!--entity MySQL--><g id="elem_MySQL"><rect fill="#F1F1F1" height="58.2188" rx="2.5" ry="2.5" style="stroke:#181818;stroke-width:0.5;" width="141" x="230.5" y="585.6094"/><polygon fill="#F1F1F1" points="354.5,590.6094,354.5,604.6094,366.5,604.6094,366.5,596.6094,360.5,590.6094,354.5,590.6094" style="stroke:#181818;stroke-width:0.5;"/><line style="stroke:#181818;stroke-width:0.5;" x1="360.5" x2="360.5" y1="590.6094" y2="596.6094"/><line style="stroke:#181818;stroke-width:0.5;" x1="366.5" x2="360.5" y1="596.6094" y2="596.6094"/><text fill="#000000" font-family="sans-serif" font-size="14" lengthAdjust="spacing" textLength="111" x="240.5" y="613.1426">MySQL Database</text><text fill="#000000" font-family="sans-serif" font-size="14" lengthAdjust="spacing" textLength="57" x="240.5" y="630.752">(brokerx)</text></g><!--entity HTML pages\n(index.html, login.html,...)--><g id="elem_HTML pages\n(index.html, login.html,...)"><rect fill="#F1F1F1" height="58.2188" rx="2.5" ry="2.5" style="stroke:#181818;stroke-width:0.5;" width="187" x="652.5" y="150.6094"/><polygon fill="#F1F1F1" points="822.5,155.6094,822.5,169.6094,834.5,169.6094,834.5,161.6094,828.5,155.6094,822.5,155.6094" style="stroke:#181818;stroke-width:0.5;"/><line style="stroke:#181818;stroke-width:0.5;" x1="828.5" x2="828.5" y1="155.6094" y2="161.6094"/><line style="stroke:#181818;stroke-width:0.5;" x1="834.5" x2="828.5" y1="161.6094" y2="161.6094"/><text fill="#000000" font-family="sans-serif" font-size="14" lengthAdjust="spacing" textLength="80" x="662.5" y="178.1426">HTML pages</text><text fill="#000000" font-family="sans-serif" font-size="14" lengthAdjust="spacing" textLength="157" x="662.5" y="195.752">(index.html, login.html,...)</text></g><!--link browser to GoApp--><g id="link_browser_GoApp"><path d="M542.629,182.458 C542.0964,182.5842 541.541,182.7171 540.9635,182.8569 C539.8084,183.1365 538.5649,183.4436 537.2388,183.779 C534.5867,184.4496 531.6045,185.2333 528.3397,186.1361 C515.2806,189.7472 497.7012,195.2637 478.6475,203.0756 C440.54,218.6994 396.535,243.5044 371,280.6094 C342.1,322.5994 340.8782,378.5742 343.3982,414.3342 " fill="none" id="browser-to-GoApp" style="stroke:#181818;stroke-width:1.0;"/><polygon fill="#181818" points="343.82,420.3194,347.1774,411.0605,343.4685,415.3317,339.1972,411.6228,343.82,420.3194" style="stroke:#181818;stroke-width:1.0;"/><text fill="#000000" font-family="sans-serif" font-size="13" lengthAdjust="spacing" textLength="125" x="372" y="295.1045">sends HTTP requests</text></g><!--reverse link browser to GoApp--><g id="link_browser_GoApp"><path d="M541.1236,214.357 C540.6992,215.6681 541.4602,213.2375 541.0053,214.6054 C540.0955,217.3413 539.1248,220.1855 538.0938,223.1156 C529.845,246.5569 517.73,275.5044 502,298.6094 C468.92,347.2094 418.11,392.6194 383.77,420.4694 " fill="none" id="browser-backto-GoApp" style="stroke:#181818;stroke-width:1.0;"/><polygon fill="#181818" points="542.9493,208.6415,536.4003,215.9975,541.4278,213.4044,544.021,218.4319,542.9493,208.6415" style="stroke:#181818;stroke-width:1.0;"/><text fill="#000000" font-family="sans-serif" font-size="13" lengthAdjust="spacing" textLength="217" x="513" y="295.1045">Serves rendred HTML pages and data</text></g><!--link GoApp to MySQL--><g id="link_GoApp_MySQL"><path d="M339.09,478.6294 C330.67,508.4894 319.0289,549.7147 310.5889,579.6347 " fill="none" id="GoApp-to-MySQL" style="stroke:#181818;stroke-width:1.0;"/><polygon fill="#181818" points="308.96,585.4094,315.2532,577.8334,310.3175,580.5972,307.5537,575.6614,308.96,585.4094" style="stroke:#181818;stroke-width:1.0;"/><text fill="#000000" font-family="sans-serif" font-size="13" lengthAdjust="spacing" textLength="128" x="330" y="525.1045">SQL queries over TCP</text></g><!--link Runner to Docker--><g id="link_Runner_Docker"><path d="M65.1851,224.8505 C65.1689,225.2449 65.1527,225.6411 65.1363,226.0393 C65.1036,226.8356 65.0706,227.6394 65.0373,228.4506 C64.9707,230.073 64.9029,231.7246 64.834,233.4035 C64.6961,236.7613 64.5538,240.2283 64.4076,243.789 C64.1153,250.9103 63.8076,258.4061 63.4896,266.1515 C62.8538,281.6423 62.1769,298.1316 61.5,314.6206 C61.4154,316.6818 61.3308,318.7429 61.2463,320.8021 C61.2251,321.3169 61.4501,315.8366 61.429,316.3511 " fill="none" id="Runner-to-Docker" style="stroke:#181818;stroke-width:1.0;"/><polygon fill="#181818" points="61.1829,322.346,65.5486,313.5177,61.3879,317.3503,57.5554,313.1896,61.1829,322.346" style="stroke:#181818;stroke-width:1.0;"/><text fill="#000000" font-family="sans-serif" font-size="13" lengthAdjust="spacing" textLength="237" x="64" y="295.1045">Deploys containers (docker-compose up)</text></g><!--SRC=[RLDTYvj057ttLnpoqWIYVLzA8Qjfaf90kahRXq8PdPiuL6VipDWQIlzxnndTR651HU-SSy-v7rfX6yAZLZz8VqMCZBf6tLgI5fbWLytQA9AA4nRR8iVd4vP78VjXjG0pu-UV271NWEJKNE9Q6KiSEs7tVObDPOMI1a-zbAGzAxnw9i2q5HTMMIpImziqmqTL6ezA3sdc47-Zv-oPgfn9RELLIFAOAH8o1T1SoUPyGAgaPMBKMfO-F7ndNHUiZ-U1zzB3Jlc3dFGlqj_aJ4jee43RgKtNUPetDgkURlcdusjwl0oyxF4LjS3Ac6KbCtIN2nH_EacDjnDyW-rWIKlMmDnSbrippIPjn3Yn4wlgkJSXD4N-Qz4NAk6KVflHw9PVQOqFGjD53MkajLQj2-JimhG8HcRiNC3B4lR5wOYENSau-q9o6fBQjiqQZN9J2kz9agmMKo6-Y2TgcD-AMdGccjF7yVlGNZp0aEG6-w8uGzFFdeozuzx5yJFE3yeuZEJQxTpT3PZauAwpKO2EoKEx7SazNKuj74ovEQD8pr4qRUK8dDRgOVeP3Afvi0PBxW_ZIhMTCeI-MqN_0000]--></g></svg>