<?xml version="1.0" encoding="us-ascii" standalone="no"?><svg xmlns="http://www.w3.org/2000/svg" xmlns:xlink="http://www.w3.org/1999/xlink" contentStyleType="text/css" height="724px" preserveAspectRatio="none" style="width:1430px;height:724px;background:#FFFFFF;" version="1.1" viewBox="0 0 1430 724" width="1430px" zoomAndPan="magnify"><defs/><g><text fill="#000000" font-family="sans-serif" font-size="14" font-weight="bold" lengthAdjust="spacing" textLength="228" x="594" y="24.5332">BrokerX - Package level diagram</text><!--cluster brokerx--><g id="cluster_brokerx"><path d="M8.5,44.6094 L64.5,44.6094 A3.75,3.75 0 0 1 67,47.1094 L74,68.2188 L1420.5,68.2188 A2.5,2.5 0 0 1 1423,70.7188 L1423,715.1094 A2.5,2.5 0 0 1 1420.5,717.6094 L8.5,717.6094 A2.5,2.5 0 0 1 6,715.1094 L6,47.1094 A2.5,2.5 0 0 1 8.5,44.6094 " fill="none" style="stroke:#000000;stroke-width:1.5;"/><line style="stroke:#000000;stroke-width:1.5;" x1="6" x2="74" y1="68.2188" y2="68.2188"/><text fill="#000000" font-family="sans-serif" font-size="14" font-weight="bold" lengthAdjust="spacing" textLength="55" x="10" y="61.1426">brokerx</text></g><!--cluster core--><g id="cluster_core"><path d="M939.5,96.6094 L972.5,96.6094 A3.75,3.75 0 0 1 975,99.1094 L982,120.2188 L1328.5,120.2188 A2.5,2.5 0 0 1 1331,122.7188 L1331,374.1094 A2.5,2.5 0 0 1 1328.5,376.6094 L939.5,376.6094 A2.5,2.5 0 0 1 937,374.1094 L937,99.1094 A2.5,2.5 0 0 1 939.5,96.6094 " fill="none" style="stroke:#000000;stroke-width:1.5;"/><line style="stroke:#000000;stroke-width:1.5;" x1="937" x2="982" y1="120.2188" y2="120.2188"/><text fill="#000000" font-family="sans-serif" font-size="14" font-weight="bold" lengthAdjust="spacing" textLength="32" x="941" y="113.1426">core</text></g><!--cluster ports--><g id="cluster_ports"><path d="M710.5,260.6094 L748.5,260.6094 A3.75,3.75 0 0 1 751,263.1094 L758,284.2188 L894.5,284.2188 A2.5,2.5 0 0 1 897,286.7188 L897,374.1094 A2.5,2.5 0 0 1 894.5,376.6094 L710.5,376.6094 A2.5,2.5 0 0 1 708,374.1094 L708,263.1094 A2.5,2.5 0 0 1 710.5,260.6094 " fill="none" style="stroke:#000000;stroke-width:1.5;"/><line style="stroke:#000000;stroke-width:1.5;" x1="708" x2="758" y1="284.2188" y2="284.2188"/><text fill="#000000" font-family="sans-serif" font-size="14" font-weight="bold" lengthAdjust="spacing" textLength="37" x="712" y="277.1426">ports</text></g><!--cluster adapters--><g id="cluster_adapters"><path d="M40.5,96.6094 L103.5,96.6094 A3.75,3.75 0 0 1 106,99.1094 L113,120.2188 L665.5,120.2188 A2.5,2.5 0 0 1 668,122.7188 L668,556.1094 A2.5,2.5 0 0 1 665.5,558.6094 L40.5,558.6094 A2.5,2.5 0 0 1 38,556.1094 L38,99.1094 A2.5,2.5 0 0 1 40.5,96.6094 " fill="none" style="stroke:#000000;stroke-width:1.5;"/><line style="stroke:#000000;stroke-width:1.5;" x1="38" x2="113" y1="120.2188" y2="120.2188"/><text fill="#000000" font-family="sans-serif" font-size="14" font-weight="bold" lengthAdjust="spacing" textLength="62" x="42" y="113.1426">adapters</text></g><!--cluster models--><g id="cluster_models"><path d="M970.5,442.6094 L1022.5,442.6094 A3.75,3.75 0 0 1 1025,445.1094 L1032,466.2188 L1387.5,466.2188 A2.5,2.5 0 0 1 1390,468.7188 L1390,683.1094 A2.5,2.5 0 0 1 1387.5,685.6094 L970.5,685.6094 A2.5,2.5 0 0 1 968,683.1094 L968,445.1094 A2.5,2.5 0 0 1 970.5,442.6094 " fill="none" style="stroke:#000000;stroke-width:1.5;"/><line style="stroke:#000000;stroke-width:1.5;" x1="968" x2="1032" y1="466.2188" y2="466.2188"/><text fill="#000000" font-family="sans-serif" font-size="14" font-weight="bold" lengthAdjust="spacing" textLength="51" x="972" y="459.1426">models</text></g><!--entity AuthService--><g id="elem_AuthService"><rect fill="#F1F1F1" height="47.6094" rx="2.5" ry="2.5" style="stroke:#181818;stroke-width:0.5;" width="116" x="986" y="140.6094"/><rect fill="#F1F1F1" height="10" style="stroke:#181818;stroke-width:0.5;" width="15" x="1082" y="145.6094"/><rect fill="#F1F1F1" height="2" style="stroke:#181818;stroke-width:0.5;" width="4" x="1080" y="147.6094"/><rect fill="#F1F1F1" height="2" style="stroke:#181818;stroke-width:0.5;" width="4" x="1080" y="151.6094"/><text fill="#000000" font-family="sans-serif" font-size="14" lengthAdjust="spacing" textLength="76" x="1001" y="175.1426">AuthService</text></g><!--entity OrderService--><g id="elem_OrderService"><rect fill="#F1F1F1" height="47.6094" rx="2.5" ry="2.5" style="stroke:#181818;stroke-width:0.5;" width="124" x="1137" y="140.6094"/><rect fill="#F1F1F1" height="10" style="stroke:#181818;stroke-width:0.5;" width="15" x="1241" y="145.6094"/><rect fill="#F1F1F1" height="2" style="stroke:#181818;stroke-width:0.5;" width="4" x="1239" y="147.6094"/><rect fill="#F1F1F1" height="2" style="stroke:#181818;stroke-width:0.5;" width="4" x="1239" y="151.6094"/><text fill="#000000" font-family="sans-serif" font-size="14" lengthAdjust="spacing" textLength="84" x="1152" y="175.1426">OrderService</text></g><!--entity ComplianceService--><g id="elem_ComplianceService"><rect fill="#F1F1F1" height="47.6094" rx="2.5" ry="2.5" style="stroke:#181818;stroke-width:0.5;" width="161" x="969.5" y="304.6094"/><rect fill="#F1F1F1" height="10" style="stroke:#181818;stroke-width:0.5;" width="15" x="1110.5" y="309.6094"/><rect fill="#F1F1F1" height="2" style="stroke:#181818;stroke-width:0.5;" width="4" x="1108.5" y="311.6094"/><rect fill="#F1F1F1" height="2" style="stroke:#181818;stroke-width:0.5;" width="4" x="1108.5" y="315.6094"/><text fill="#000000" font-family="sans-serif" font-size="14" lengthAdjust="spacing" textLength="121" x="984.5" y="339.1426">ComplianceService</text></g><!--entity MatchingEngine--><g id="elem_MatchingEngine"><rect fill="#F1F1F1" height="47.6094" rx="2.5" ry="2.5" style="stroke:#181818;stroke-width:0.5;" width="141" x="1165.5" y="304.6094"/><rect fill="#F1F1F1" height="10" style="stroke:#181818;stroke-width:0.5;" width="15" x="1286.5" y="309.6094"/><rect fill="#F1F1F1" height="2" style="stroke:#181818;stroke-width:0.5;" width="4" x="1284.5" y="311.6094"/><rect fill="#F1F1F1" height="2" style="stroke:#181818;stroke-width:0.5;" width="4" x="1284.5" y="315.6094"/><text fill="#000000" font-family="sans-serif" font-size="14" lengthAdjust="spacing" textLength="101" x="1180.5" y="339.1426">MatchingEngine</text></g><!--entity All interfaces--><g id="elem_All interfaces"><rect fill="#F1F1F1" height="47.6094" rx="2.5" ry="2.5" style="stroke:#181818;stroke-width:0.5;" width="121" x="751.5" y="304.6094"/><rect fill="#F1F1F1" height="10" style="stroke:#181818;stroke-width:0.5;" width="15" x="852.5" y="309.6094"/><rect fill="#F1F1F1" height="2" style="stroke:#181818;stroke-width:0.5;" width="4" x="850.5" y="311.6094"/><rect fill="#F1F1F1" height="2" style="stroke:#181818;stroke-width:0.5;" width="4" x="850.5" y="315.6094"/><text fill="#000000" font-family="sans-serif" font-size="14" lengthAdjust="spacing" textLength="81" x="766.5" y="339.1426">All interfaces</text></g><!--entity HttpAuthHandler--><g id="elem_HttpAuthHandler"><rect fill="#F1F1F1" height="47.6094" rx="2.5" ry="2.5" style="stroke:#181818;stroke-width:0.5;" width="143" x="69.5" y="140.6094"/><rect fill="#F1F1F1" height="10" style="stroke:#181818;stroke-width:0.5;" width="15" x="192.5" y="145.6094"/><rect fill="#F1F1F1" height="2" style="stroke:#181818;stroke-width:0.5;" width="4" x="190.5" y="147.6094"/><rect fill="#F1F1F1" height="2" style="stroke:#181818;stroke-width:0.5;" width="4" x="190.5" y="151.6094"/><text fill="#000000" font-family="sans-serif" font-size="14" lengthAdjust="spacing" textLength="103" x="84.5" y="175.1426">HttpAuthHandler</text></g><!--entity HttpOrderHandler--><g id="elem_HttpOrderHandler"><rect fill="#F1F1F1" height="47.6094" rx="2.5" ry="2.5" style="stroke:#181818;stroke-width:0.5;" width="151" x="247.5" y="140.6094"/><rect fill="#F1F1F1" height="10" style="stroke:#181818;stroke-width:0.5;" width="15" x="378.5" y="145.6094"/><rect fill="#F1F1F1" height="2" style="stroke:#181818;stroke-width:0.5;" width="4" x="376.5" y="147.6094"/><rect fill="#F1F1F1" height="2" style="stroke:#181818;stroke-width:0.5;" width="4" x="376.5" y="151.6094"/><text fill="#000000" font-family="sans-serif" font-size="14" lengthAdjust="spacing" textLength="111" x="262.5" y="175.1426">HttpOrderHandler</text></g><!--entity HttpMarketDataProvider--><g id="elem_HttpMarketDataProvider"><rect fill="#F1F1F1" height="47.6094" rx="2.5" ry="2.5" style="stroke:#181818;stroke-width:0.5;" width="191" x="433.5" y="140.6094"/><rect fill="#F1F1F1" height="10" style="stroke:#181818;stroke-width:0.5;" width="15" x="604.5" y="145.6094"/><rect fill="#F1F1F1" height="2" style="stroke:#181818;stroke-width:0.5;" width="4" x="602.5" y="147.6094"/><rect fill="#F1F1F1" height="2" style="stroke:#181818;stroke-width:0.5;" width="4" x="602.5" y="151.6094"/><text fill="#000000" font-family="sans-serif" font-size="14" lengthAdjust="spacing" textLength="151" x="448.5" y="175.1426">HttpMarketDataProvider</text></g><!--entity SQLOrderRepo--><g id="elem_SQLOrderRepo"><rect fill="#F1F1F1" height="47.6094" rx="2.5" ry="2.5" style="stroke:#181818;stroke-width:0.5;" width="139" x="84.5" y="304.6094"/><rect fill="#F1F1F1" height="10" style="stroke:#181818;stroke-width:0.5;" width="15" x="203.5" y="309.6094"/><rect fill="#F1F1F1" height="2" style="stroke:#181818;stroke-width:0.5;" width="4" x="201.5" y="311.6094"/><rect fill="#F1F1F1" height="2" style="stroke:#181818;stroke-width:0.5;" width="4" x="201.5" y="315.6094"/><text fill="#000000" font-family="sans-serif" font-size="14" lengthAdjust="spacing" textLength="99" x="99.5" y="339.1426">SQLOrderRepo</text></g><!--entity SQLUserRepo--><g id="elem_SQLUserRepo"><rect fill="#F1F1F1" height="47.6094" rx="2.5" ry="2.5" style="stroke:#181818;stroke-width:0.5;" width="131" x="258.5" y="304.6094"/><rect fill="#F1F1F1" height="10" style="stroke:#181818;stroke-width:0.5;" width="15" x="369.5" y="309.6094"/><rect fill="#F1F1F1" height="2" style="stroke:#181818;stroke-width:0.5;" width="4" x="367.5" y="311.6094"/><rect fill="#F1F1F1" height="2" style="stroke:#181818;stroke-width:0.5;" width="4" x="367.5" y="315.6094"/><text fill="#000000" font-family="sans-serif" font-size="14" lengthAdjust="spacing" textLength="91" x="273.5" y="339.1426">SQLUserRepo</text></g><!--entity SQLPositionRepo--><g id="elem_SQLPositionRepo"><rect fill="#F1F1F1" height="47.6094" rx="2.5" ry="2.5" style="stroke:#181818;stroke-width:0.5;" width="152" x="425" y="304.6094"/><rect fill="#F1F1F1" height="10" style="stroke:#181818;stroke-width:0.5;" width="15" x="557" y="309.6094"/><rect fill="#F1F1F1" height="2" style="stroke:#181818;stroke-width:0.5;" width="4" x="555" y="311.6094"/><rect fill="#F1F1F1" height="2" style="stroke:#181818;stroke-width:0.5;" width="4" x="555" y="315.6094"/><text fill="#000000" font-family="sans-serif" font-size="14" lengthAdjust="spacing" textLength="112" x="440" y="339.1426">SQLPositionRepo</text></g><!--entity SQLTransactionManager--><g id="elem_SQLTransactionManager"><rect fill="#F1F1F1" height="47.6094" rx="2.5" ry="2.5" style="stroke:#181818;stroke-width:0.5;" width="199" x="62.5" y="486.6094"/><rect fill="#F1F1F1" height="10" style="stroke:#181818;stroke-width:0.5;" width="15" x="241.5" y="491.6094"/><rect fill="#F1F1F1" height="2" style="stroke:#181818;stroke-width:0.5;" width="4" x="239.5" y="493.6094"/><rect fill="#F1F1F1" height="2" style="stroke:#181818;stroke-width:0.5;" width="4" x="239.5" y="497.6094"/><text fill="#000000" font-family="sans-serif" font-size="14" lengthAdjust="spacing" textLength="159" x="77.5" y="521.1426">SQLTransactionManager</text></g><!--entity SQLWalletRepo--><g id="elem_SQLWalletRepo"><rect fill="#F1F1F1" height="47.6094" rx="2.5" ry="2.5" style="stroke:#181818;stroke-width:0.5;" width="141" x="296.5" y="486.6094"/><rect fill="#F1F1F1" height="10" style="stroke:#181818;stroke-width:0.5;" width="15" x="417.5" y="491.6094"/><rect fill="#F1F1F1" height="2" style="stroke:#181818;stroke-width:0.5;" width="4" x="415.5" y="493.6094"/><rect fill="#F1F1F1" height="2" style="stroke:#181818;stroke-width:0.5;" width="4" x="415.5" y="497.6094"/><text fill="#000000" font-family="sans-serif" font-size="14" lengthAdjust="spacing" textLength="101" x="311.5" y="521.1426">SQLWalletRepo</text></g><!--entity SQLExecutionRepo--><g id="elem_SQLExecutionRepo"><rect fill="#F1F1F1" height="47.6094" rx="2.5" ry="2.5" style="stroke:#181818;stroke-width:0.5;" width="163" x="472.5" y="486.6094"/><rect fill="#F1F1F1" height="10" style="stroke:#181818;stroke-width:0.5;" width="15" x="615.5" y="491.6094"/><rect fill="#F1F1F1" height="2" style="stroke:#181818;stroke-width:0.5;" width="4" x="613.5" y="493.6094"/><rect fill="#F1F1F1" height="2" style="stroke:#181818;stroke-width:0.5;" width="4" x="613.5" y="497.6094"/><text fill="#000000" font-family="sans-serif" font-size="14" lengthAdjust="spacing" textLength="123" x="487.5" y="521.1426">SQLExecutionRepo</text></g><!--entity Order--><g id="elem_Order"><rect fill="#F1F1F1" height="47.6094" rx="2.5" ry="2.5" style="stroke:#181818;stroke-width:0.5;" width="77" x="1011.5" y="486.6094"/><rect fill="#F1F1F1" height="10" style="stroke:#181818;stroke-width:0.5;" width="15" x="1068.5" y="491.6094"/><rect fill="#F1F1F1" height="2" style="stroke:#181818;stroke-width:0.5;" width="4" x="1066.5" y="493.6094"/><rect fill="#F1F1F1" height="2" style="stroke:#181818;stroke-width:0.5;" width="4" x="1066.5" y="497.6094"/><text fill="#000000" font-family="sans-serif" font-size="14" lengthAdjust="spacing" textLength="37" x="1026.5" y="521.1426">Order</text></g><!--entity Instrument--><g id="elem_Instrument"><rect fill="#F1F1F1" height="47.6094" rx="2.5" ry="2.5" style="stroke:#181818;stroke-width:0.5;" width="106" x="1124" y="486.6094"/><rect fill="#F1F1F1" height="10" style="stroke:#181818;stroke-width:0.5;" width="15" x="1210" y="491.6094"/><rect fill="#F1F1F1" height="2" style="stroke:#181818;stroke-width:0.5;" width="4" x="1208" y="493.6094"/><rect fill="#F1F1F1" height="2" style="stroke:#181818;stroke-width:0.5;" width="4" x="1208" y="497.6094"/><text fill="#000000" font-family="sans-serif" font-size="14" lengthAdjust="spacing" textLength="66" x="1139" y="521.1426">Instrument</text></g><!--entity Position--><g id="elem_Position"><rect fill="#F1F1F1" height="47.6094" rx="2.5" ry="2.5" style="stroke:#181818;stroke-width:0.5;" width="90" x="1265" y="486.6094"/><rect fill="#F1F1F1" height="10" style="stroke:#181818;stroke-width:0.5;" width="15" x="1335" y="491.6094"/><rect fill="#F1F1F1" height="2" style="stroke:#181818;stroke-width:0.5;" width="4" x="1333" y="493.6094"/><rect fill="#F1F1F1" height="2" style="stroke:#181818;stroke-width:0.5;" width="4" x="1333" y="497.6094"/><text fill="#000000" font-family="sans-serif" font-size="14" lengthAdjust="spacing" textLength="50" x="1280" y="521.1426">Position</text></g><!--entity User--><g id="elem_User"><rect fill="#F1F1F1" height="47.6094" rx="2.5" ry="2.5" style="stroke:#181818;stroke-width:0.5;" width="69" x="1000.5" y="613.6094"/><rect fill="#F1F1F1" height="10" style="stroke:#181818;stroke-width:0.5;" width="15" x="1049.5" y="618.6094"/><rect fill="#F1F1F1" height="2" style="stroke:#181818;stroke-width:0.5;" width="4" x="1047.5" y="620.6094"/><rect fill="#F1F1F1" height="2" style="stroke:#181818;stroke-width:0.5;" width="4" x="1047.5" y="624.6094"/><text fill="#000000" font-family="sans-serif" font-size="14" lengthAdjust="spacing" textLength="29" x="1015.5" y="648.1426">User</text></g><!--entity Wallet--><g id="elem_Wallet"><rect fill="#F1F1F1" height="47.6094" rx="2.5" ry="2.5" style="stroke:#181818;stroke-width:0.5;" width="79" x="1104.5" y="613.6094"/><rect fill="#F1F1F1" height="10" style="stroke:#181818;stroke-width:0.5;" width="15" x="1163.5" y="618.6094"/><rect fill="#F1F1F1" height="2" style="stroke:#181818;stroke-width:0.5;" width="4" x="1161.5" y="620.6094"/><rect fill="#F1F1F1" height="2" style="stroke:#181818;stroke-width:0.5;" width="4" x="1161.5" y="624.6094"/><text fill="#000000" font-family="sans-serif" font-size="14" lengthAdjust="spacing" textLength="39" x="1119.5" y="648.1426">Wallet</text></g><!--entity ExecutionRecord--><g id="elem_ExecutionRecord"><rect fill="#F1F1F1" height="47.6094" rx="2.5" ry="2.5" style="stroke:#181818;stroke-width:0.5;" width="147" x="1218.5" y="613.6094"/><rect fill="#F1F1F1" height="10" style="stroke:#181818;stroke-width:0.5;" width="15" x="1345.5" y="618.6094"/><rect fill="#F1F1F1" height="2" style="stroke:#181818;stroke-width:0.5;" width="4" x="1343.5" y="620.6094"/><rect fill="#F1F1F1" height="2" style="stroke:#181818;stroke-width:0.5;" width="4" x="1343.5" y="624.6094"/><text fill="#000000" font-family="sans-serif" font-size="14" lengthAdjust="spacing" textLength="107" x="1233.5" y="648.1426">ExecutionRecord</text></g><!--link core to models--><g id="link_core_models"><path d="M1331.4281,255.1211 C1331.7173,255.5101 1332.0039,255.8991 1332.2879,256.2881 C1332.8561,257.0661 1333.4139,257.8439 1333.9616,258.6216 C1335.0568,260.1769 1336.111,261.7318 1337.1241,263.2862 C1341.1766,269.5036 1344.5709,275.7127 1347.3,281.9136 C1352.7581,294.3153 1355.555,306.6838 1355.6325,319.0181 C1355.7875,343.6869 1345.065,368.2194 1323,392.6094 C1272.21,448.7494 1037.43,372.9694 984,426.6094 C980.8325,429.7894 978.3148,433.4163 976.3361,437.3352 C975.8414,438.3149 975.3804,439.3129 974.9513,440.3267 C974.7368,440.8336 974.5303,441.3444 974.3315,441.859 C974.2818,441.9876 976.3515,436.5031 976.3028,436.6321 " fill="none" id="core-to-models" style="stroke:#181818;stroke-width:1.0;"/><polygon fill="#181818" points="974.1839,442.2455,981.1045,435.238,975.9496,437.5677,973.62,432.4128,974.1839,442.2455" style="stroke:#181818;stroke-width:1.0;"/><text fill="#000000" font-family="sans-serif" font-size="13" lengthAdjust="spacing" textLength="28" x="1356" y="334.1045">uses</text></g><!--link ports to models--><g id="link_ports_models"><path d="M725.445,376.8448 C725.4901,376.9484 725.5353,377.052 725.5808,377.1554 C725.6718,377.3623 725.7636,377.5688 725.8563,377.775 C726.0417,378.1873 726.2306,378.598 726.4231,379.007 C727.1929,380.6428 728.0196,382.2503 728.9073,383.8163 C730.6828,386.9483 732.7025,389.9144 735,392.6094 C773.015,437.2094 831.99,466.2494 882.0838,484.2419 C907.1306,493.2381 929.9572,499.4725 946.8333,503.5091 C955.2713,505.5273 962.2218,506.9962 967.2183,507.9861 C967.3744,508.017 961.6418,506.8879 961.7941,506.9179 " fill="none" id="ports-to-models" style="stroke:#181818;stroke-width:1.0;"/><polygon fill="#181818" points="967.681,508.0775,959.6237,502.4136,962.7752,507.1112,958.0776,510.2628,967.681,508.0775" style="stroke:#181818;stroke-width:1.0;"/><text fill="#000000" font-family="sans-serif" font-size="13" lengthAdjust="spacing" textLength="60" x="761" y="415.1045">references</text></g><!--link core to ports--><g id="link_core_ports"><path d="M936.8129,168.943 C935.857,169.3306 934.8242,169.7491 933.7177,170.1968 C931.5048,171.0921 928.9977,172.1045 926.2244,173.2212 C915.1313,177.6881 899.78,183.8244 881.97,190.8194 C846.35,204.8094 800.895,222.2344 760,236.6094 C748.99,240.4794 742.89,236.0194 735,244.6094 C731.9,247.9844 729.2722,251.7591 727.0477,255.7871 C726.4915,256.7942 725.9606,257.817 725.4538,258.8534 C725.2004,259.3716 727.4614,254.4427 727.2199,254.9674 " fill="none" id="core-to-ports" style="stroke:#181818;stroke-width:1.0;"/><polygon fill="#181818" points="724.7116,260.4179,732.1078,253.9144,726.8019,255.8758,724.8405,250.5699,724.7116,260.4179" style="stroke:#181818;stroke-width:1.0;"/><text fill="#000000" font-family="sans-serif" font-size="13" lengthAdjust="spacing" textLength="60" x="806" y="233.1045">references</text></g><!--link adapters to ports--><g id="link_adapters_ports"><path d="M668.0643,188.9403 C668.1414,189.1633 668.2189,189.3875 668.2968,189.613 C668.6085,190.5146 668.9269,191.4354 669.2514,192.3742 C674.4441,207.3947 681.2281,227.0188 688.0113,246.6406 C694.7944,266.2625 701.5766,285.8822 706.7655,300.8939 C707.0898,301.8321 707.4079,302.7524 707.7193,303.6535 C707.7972,303.8788 705.9145,298.432 705.9916,298.6549 " fill="none" id="adapters-to-ports" style="stroke:#181818;stroke-width:1.0;"/><polygon fill="#181818" points="707.9517,304.3257,708.792,294.5128,706.3183,299.6,701.231,297.1263,707.9517,304.3257" style="stroke:#181818;stroke-width:1.0;"/><text fill="#000000" font-family="sans-serif" font-size="13" lengthAdjust="spacing" textLength="67" x="684" y="233.1045">implements</text></g><!--SRC=[PPBFQiCm3CRlVWgHoqvzWHq6-rFeOALTkx71w45prDJKiOsibCBOkoznqZPUR_Rla_nzGXOZbk21_Pxu4oQmHBt7Yi3IWIoK1Yl6MgamuE8xLHuB-540PwezKm4OeJia2U3hlf7TclXWD6rwik2IE4UFlWxMeDEKypcAtXbNJLrbN8A_QkmOF4jCbkbqzhGMZ1FYBMgArsrOOcZLM9mQPYAX2pf3LrhYpOMciDTuZhmdUKB19Vk3AS_Y-lKbjQme-0jwZ__9qaSZnhkSlZ6wYBeJvkZQhADdFz1Qahn-UYJTZ9_9vwnzIVOoPGesD3-xADpKv6G0fq33jKiy77lZuJ9oRBTSzfwjwmsio68dn9q9KQKlC9dSGPy1Rg6955M_fempROcfNVsegI_BjDFECjsqtuQw8QBw0m00]--></g></svg>