<?xml version="1.0" encoding="us-ascii" standalone="no"?><svg xmlns="http://www.w3.org/2000/svg" xmlns:xlink="http://www.w3.org/1999/xlink" contentStyleType="text/css" height="799px" preserveAspectRatio="none" style="width:653px;height:799px;background:#FFFFFF;" version="1.1" viewBox="0 0 653 799" width="653px" zoomAndPan="magnify"><defs/><g><!--cluster BrokerX--><g id="cluster_BrokerX"><rect fill="none" height="786" rx="2.5" ry="2.5" style="stroke:#181818;stroke-width:1.0;" width="322" x="143" y="7"/><text fill="#000000" font-family="sans-serif" font-size="14" font-weight="bold" lengthAdjust="spacing" textLength="57" x="275.5" y="23.5332">BrokerX</text></g><g id="elem_UC01"><ellipse cx="303.9264" cy="376.9034" fill="#F1F1F1" rx="45.4264" ry="27.9034" style="stroke:#181818;stroke-width:0.5;"/><text fill="#000000" font-family="sans-serif" font-size="14" lengthAdjust="spacing" textLength="40" x="283.9264" y="371.8272">UC-01</text><text fill="#000000" font-family="sans-serif" font-size="14" lengthAdjust="spacing" textLength="48" x="279.9264" y="389.4366">Sign up</text></g><g id="elem_UC02"><ellipse cx="303.7696" cy="467.9034" fill="#98FB98" rx="39.7696" ry="27.9034" style="stroke:#181818;stroke-width:0.5;"/><text fill="#000000" font-family="sans-serif" font-size="14" lengthAdjust="spacing" textLength="40" x="283.7696" y="462.8272">UC-02</text><text fill="#000000" font-family="sans-serif" font-size="14" lengthAdjust="spacing" textLength="35" x="286.2696" y="480.4366">Login</text></g><g id="elem_UC03"><ellipse cx="304.2401" cy="558.9034" fill="#F1F1F1" rx="56.7401" ry="27.9034" style="stroke:#181818;stroke-width:0.5;"/><text fill="#000000" font-family="sans-serif" font-size="14" lengthAdjust="spacing" textLength="40" x="284.2401" y="553.8272">UC-03</text><text fill="#000000" font-family="sans-serif" font-size="14" lengthAdjust="spacing" textLength="64" x="272.2401" y="571.4366">Add funds</text></g><g id="elem_UC04"><ellipse cx="304.1543" cy="649.9034" fill="#F1F1F1" rx="58.1543" ry="27.9034" style="stroke:#181818;stroke-width:0.5;"/><text fill="#000000" font-family="sans-serif" font-size="14" lengthAdjust="spacing" textLength="40" x="284.1543" y="644.8272">UC-04</text><text fill="#000000" font-family="sans-serif" font-size="14" lengthAdjust="spacing" textLength="66" x="271.1543" y="662.4366">View stock</text></g><g id="elem_UC06"><ellipse cx="303.8467" cy="740.9034" fill="#F1F1F1" rx="67.3467" ry="27.9034" style="stroke:#181818;stroke-width:0.5;"/><text fill="#000000" font-family="sans-serif" font-size="14" lengthAdjust="spacing" textLength="40" x="283.8467" y="735.8272">UC-06</text><text fill="#000000" font-family="sans-serif" font-size="14" lengthAdjust="spacing" textLength="79" x="264.3467" y="753.4366">Modify order</text></g><g id="elem_UC08"><ellipse cx="303.9897" cy="192.7979" fill="#F1F1F1" rx="136.9897" ry="29.7979" style="stroke:#181818;stroke-width:0.5;"/><text fill="#000000" font-family="sans-serif" font-size="14" lengthAdjust="spacing" textLength="40" x="283.9897" y="187.7218">UC-08</text><text fill="#000000" font-family="sans-serif" font-size="14" lengthAdjust="spacing" textLength="190" x="208.9897" y="205.3312">Confirm order and notify client</text></g><g id="elem_UC05"><ellipse cx="304.1041" cy="285.9034" fill="#98FB98" rx="63.1041" ry="27.9034" style="stroke:#181818;stroke-width:0.5;"/><text fill="#000000" font-family="sans-serif" font-size="14" lengthAdjust="spacing" textLength="40" x="284.1041" y="280.8272">UC-05</text><text fill="#000000" font-family="sans-serif" font-size="14" lengthAdjust="spacing" textLength="73" x="267.6041" y="298.4366">Place order</text></g><g id="elem_UC07"><ellipse cx="304.1133" cy="81.2227" fill="#98FB98" rx="136.6133" ry="29.7227" style="stroke:#181818;stroke-width:0.5;"/><text fill="#000000" font-family="sans-serif" font-size="14" lengthAdjust="spacing" textLength="40" x="284.1133" y="76.1465">UC-07</text><text fill="#000000" font-family="sans-serif" font-size="14" lengthAdjust="spacing" textLength="189" x="209.6133" y="93.7559">Find match and execute order</text></g><!--entity C--><g id="elem_C"><ellipse cx="24" cy="437.5" fill="#F1F1F1" rx="8" ry="8" style="stroke:#181818;stroke-width:0.5;"/><path d="M24,445.5 L24,472.5 M11,453.5 L37,453.5 M24,472.5 L11,487.5 M24,472.5 L37,487.5 " fill="none" style="stroke:#181818;stroke-width:0.5;"/><text fill="#000000" font-family="sans-serif" font-size="14" lengthAdjust="spacing" textLength="36" x="6" y="503.5332">Client</text></g><!--entity PS--><g id="elem_PS"><ellipse cx="579" cy="517.5" fill="#F1F1F1" rx="8" ry="8" style="stroke:#181818;stroke-width:0.5;"/><path d="M579,525.5 L579,552.5 M566,533.5 L592,533.5 M579,552.5 L566,567.5 M579,552.5 L592,567.5 " fill="none" style="stroke:#181818;stroke-width:0.5;"/><text fill="#000000" font-family="sans-serif" font-size="14" lengthAdjust="spacing" textLength="106" x="526" y="583.5332">Payment Service</text></g><!--entity MDP--><g id="elem_MDP"><ellipse cx="579" cy="630.5" fill="#F1F1F1" rx="8" ry="8" style="stroke:#181818;stroke-width:0.5;"/><path d="M579,638.5 L579,665.5 M566,646.5 L592,646.5 M579,665.5 L566,680.5 M579,665.5 L592,680.5 " fill="none" style="stroke:#181818;stroke-width:0.5;"/><text fill="#000000" font-family="sans-serif" font-size="14" lengthAdjust="spacing" textLength="134" x="512" y="696.5332">Market Data Provider</text></g><!--link C to UC01--><g id="link_C_UC01"><path d="M42.44,457.27 C51.12,452.21 61.89,446.35 72,442 C135.34,414.75 207.4542,396.8318 254.6842,386.6718 " fill="none" id="C-to-UC01" style="stroke:#181818;stroke-width:1.0;"/><polygon fill="#181818" points="260.55,385.41,250.9101,383.3922,255.6618,386.4615,252.5925,391.2133,260.55,385.41" style="stroke:#181818;stroke-width:1.0;"/></g><!--link C to UC02--><g id="link_C_UC02"><path d="M42.39,468 C86.25,468 196.26,468 257.63,468 " fill="none" id="C-to-UC02" style="stroke:#181818;stroke-width:1.0;"/><polygon fill="#181818" points="263.63,468,254.63,464,258.63,468,254.63,472,263.63,468" style="stroke:#181818;stroke-width:1.0;"/></g><!--link C to UC03--><g id="link_C_UC03"><path d="M42.28,475.83 C63.74,485.38 101.6,501.64 135,513 C174.08,526.29 213.4319,537.0238 247.0819,545.5038 " fill="none" id="C-to-UC03" style="stroke:#181818;stroke-width:1.0;"/><polygon fill="#181818" points="252.9,546.97,245.1503,540.892,248.0516,545.7482,243.1954,548.6494,252.9,546.97" style="stroke:#181818;stroke-width:1.0;"/></g><!--link C to UC04--><g id="link_C_UC04"><path d="M42.12,498.94 C60.91,530.06 93.95,577.16 135,604 C168.66,626.01 206.7794,636.5281 241.3194,642.5581 " fill="none" id="C-to-UC04" style="stroke:#181818;stroke-width:1.0;"/><polygon fill="#181818" points="247.23,643.59,239.052,638.1018,242.3045,642.7301,237.6762,645.9826,247.23,643.59" style="stroke:#181818;stroke-width:1.0;"/></g><!--link C to UC05--><g id="link_C_UC05"><path d="M42.09,437.15 C60.86,406.15 93.87,359.31 135,333 C167.66,312.11 203.7687,301.4972 237.5987,294.9672 " fill="none" id="C-to-UC05" style="stroke:#181818;stroke-width:1.0;"/><polygon fill="#181818" points="243.49,293.83,233.895,291.6082,238.5806,294.7776,235.4112,299.4632,243.49,293.83" style="stroke:#181818;stroke-width:1.0;"/></g><!--link C to UC06--><g id="link_C_UC06"><path d="M31.99,507.15 C43.54,559.35 71.92,650.32 135,695 C165.23,716.41 199.0994,726.7722 232.3494,732.9022 " fill="none" id="C-to-UC06" style="stroke:#181818;stroke-width:1.0;"/><polygon fill="#181818" points="238.25,733.99,230.1244,728.4245,233.3329,733.0835,228.6739,736.292,238.25,733.99" style="stroke:#181818;stroke-width:1.0;"/></g><!--link UC03 to PS--><g id="link_UC03_PS"><path d="M360.57,556.76 C408.9,554.81 478.42,552.01 525.74,550.11 " fill="none" id="UC03-PS" style="stroke:#181818;stroke-width:1.0;"/></g><!--link UC04 to MDP--><g id="link_UC04_MDP"><path d="M361.9,652.29 C405.5,654.05 465.75,656.48 511.56,658.32 " fill="none" id="UC04-MDP" style="stroke:#181818;stroke-width:1.0;"/></g><!--link UC08 to C--><g id="link_UC08_C"><path d="M193.56,210.96 C172.8,217.75 152.21,227.11 135,240 C73.09,286.38 44.32,376.75 32.38,428.71 " fill="none" id="UC08-C" style="stroke:#181818;stroke-width:1.0;"/></g><!--reverse link UC05 to UC07--><g id="link_UC05_UC07"><path d="M236.1517,279.353 C201.8517,273.633 165.93,263.12 135,240 C115.34,225.31 112.7,216.61 106,193 C91.93,143.42 143.66,115.28 197.76,99.61 " fill="none" id="UC05-backto-UC07" style="stroke:#181818;stroke-width:1.0;stroke-dasharray:7.0,7.0;"/><polygon fill="#181818" points="242.07,280.34,233.8506,274.9141,237.1381,279.5175,232.5346,282.8051,242.07,280.34" style="stroke:#181818;stroke-width:1.0;"/><text fill="#000000" font-family="sans-serif" font-size="13" lengthAdjust="spacing" textLength="53" x="73" y="189.4951">&#171;extend&#187;</text></g><!--reverse link UC08 to UC07--><g id="link_UC08_UC07"><path d="M304,156.99 C304,140.79 304,126.86 304,110.71 " fill="none" id="UC08-backto-UC07" style="stroke:#181818;stroke-width:1.0;stroke-dasharray:7.0,7.0;"/><polygon fill="#181818" points="304,162.99,308,153.99,304,157.99,300,153.99,304,162.99" style="stroke:#181818;stroke-width:1.0;"/><text fill="#000000" font-family="sans-serif" font-size="13" lengthAdjust="spacing" textLength="55" x="264.5" y="142.2451">&#171;include&#187;</text></g><!--SRC=[ZP9DImCn48Rl-HL3FNYgQB-HKj2jdYmi5iN3Nc8otOPk9oN9sXRfVtUJRQoL1SrXUPTvvft9J0fSE70QZCgN3gGoA9pIn1WNJXj82eNaW5j86FCnJdc1S6_q2iqRV3AeZjCvkYMQuwy_fKN1BKBh9MbVtsGqLpb1kMbvfvVa-gOPx6Jqf7D54Ul0nOONc1j4QixePdGd9InAaZPcTPlHNaQl2hTWdHQhoFQQsK56CotLOW_QI3IH7WJw4Bx_klaeeqJJGfbrRGIS991stbc4qKRhKRD1FwEqu0BF- -Z_EPTXHe-gghNcJYn3LToXADqle-5lemCxnDMtKhvV- -NFqNmeWI4ddSVeZ9iLEfXono4r-aD5szaqPUmolXn53WqFRygo1DhjIRt_RzavoUv9zawoVv83R_omgno95s3hlknv3UzJyLMdu7NFwsDBprZm02tLni8xkcrrRJyty8CBgIEF9opCU7nLZ-WMncEiYfASJ6hcPqIHA4g9LUWB]--></g></svg>